<svg width="200" height="200" viewBox="0 0 200 200" xmlns="http://www.w3.org/2000/svg">
  <rect width="200" height="200" fill="white"/>
  <rect x="20" y="20" width="40" height="40" fill="black"/>
  <rect x="30" y="30" width="20" height="20" fill="white"/>
  <rect x="40" y="40" width="10" height="10" fill="black"/>

  <rect x="140" y="20" width="40" height="40" fill="black"/>
  <rect x="150" y="30" width="20" height="20" fill="white"/>
  <rect x="160" y="40" width="10" height="10" fill="black"/>

  <rect x="20" y="140" width="40" height="40" fill="black"/>
  <rect x="30" y="150" width="20" height="20" fill="white"/>
  <rect x="40" y="160" width="10" height="10" fill="black"/>

  <!-- Random pattern in middle -->
  <rect x="70" y="30" width="10" height="10" fill="black"/>
  <rect x="90" y="30" width="10" height="10" fill="black"/>
  <rect x="110" y="30" width="10" height="10" fill="black"/>
  <rect x="130" y="30" width="10" height="10" fill="black"/>

  <rect x="70" y="50" width="10" height="10" fill="black"/>
  <rect x="110" y="50" width="10" height="10" fill="black"/>
  <rect x="130" y="50" width="10" height="10" fill="black"/>

  <rect x="70" y="70" width="10" height="10" fill="black"/>
  <rect x="90" y="70" width="10" height="10" fill="black"/>
  <rect x="130" y="70" width="10" height="10" fill="black"/>

  <rect x="70" y="90" width="10" height="10" fill="black"/>
  <rect x="110" y="90" width="10" height="10" fill="black"/>
  <rect x="130" y="90" width="10" height="10" fill="black"/>

  <rect x="70" y="110" width="10" height="10" fill="black"/>
  <rect x="90" y="110" width="10" height="10" fill="black"/>
  <rect x="110" y="110" width="10" height="10" fill="black"/>
  <rect x="130" y="110" width="10" height="10" fill="black"/>

  <rect x="70" y="130" width="10" height="10" fill="black"/>
  <rect x="130" y="130" width="10" height="10" fill="black"/>

  <rect x="90" y="150" width="10" height="10" fill="black"/>
  <rect x="110" y="150" width="10" height="10" fill="black"/>
  <rect x="130" y="150" width="10" height="10" fill="black"/>

  <rect x="70" y="170" width="10" height="10" fill="black"/>
  <rect x="90" y="170" width="10" height="10" fill="black"/>
  <rect x="110" y="170" width="10" height="10" fill="black"/>
  <rect x="130" y="170" width="10" height="10" fill="black"/>
</svg>